<?xml version="1.0" encoding="utf-8"?>
<!-- Generator: Adobe Illustrator 24.1.3, SVG Export Plug-In . SVG Version: 6.00 Build 0)  -->
<svg version="1.1" xmlns="http://www.w3.org/2000/svg" xmlns:xlink="http://www.w3.org/1999/xlink" x="0px" y="0px"
	 viewBox="0 0 89 89" style="enable-background:new 0 0 89 89;" xml:space="preserve">
<style type="text/css">
	.st0{display:none;}
	.st1{display:inline;}
	.st2{fill:#01AFD3;}
	.st3{fill:#11232E;}
	.st4{fill:#FFFFFF;}
</style>
<g id="Layer_1" class="st0">
	<g id="Layer_2_1_">
		<rect x="1.3" class="st1" width="88.4" height="90.3"/>
	</g>
	<g id="Layer_1_1_" class="st1">
		<g id="XMLID_3_">
			<g>
				<path class="st2" d="M43.6,85.9c-22.8-0.7-41-19-41-41.5c0-22.5,18.3-40.9,41.2-41.5v13.9c-0.1,0-0.1,0-0.2,0
					c-15,0.5-27,12.6-27,27.4c0,14.8,12,26.9,27,27.4V85.9z"/>
				<path class="st2" d="M43.6,85.9C20.7,85.4,2.3,67,2.3,44.4c0-22.6,18.5-41,41.5-41.5v0C20.9,3.5,2.6,21.9,2.6,44.4
					C2.6,66.9,20.8,85.2,43.6,85.9L43.6,85.9z"/>
				<path class="st2" d="M16.6,44.3c0-14.8,12-26.9,27-27.4v0c-14.8,0.7-26.7,12.7-26.7,27.4c0,10,5.5,18.8,13.7,23.6
					c3.8,2.2,8.3,3.6,13,3.8v0C28.6,71.2,16.6,59.1,16.6,44.3z"/>
				<path class="st2" d="M30.6,67.8V47.2l13-6.3v30.8C38.8,71.5,34.4,70.1,30.6,67.8L30.6,67.8z"/>
				<path class="st3" d="M47.2,17c14.5,1.1,25.8,12.9,25.8,27.4c0,14.8-12,26.9-27,27.4v0c14.8-0.7,26.7-12.7,26.7-27.4
					c0-10-5.5-18.8-13.7-23.6c-3.8-2.2-8.3-3.6-13-3.8v0C46.4,16.9,46.8,17,47.2,17z"/>
				<path class="st3" d="M46,16.9V2.7c0.4,0,0.8,0,1.2,0l0,0.2v13.9l0,0C46.8,17,46.4,16.9,46,16.9z"/>
				<path class="st3" d="M73.1,44.3c0-14.4-11.4-26.3-25.8-27.4l0,0V3l0-0.2C69.4,4,87,22.1,87,44.2C87,66.7,68.8,85,46,85.6v0V71.8
					C61,71.3,73.1,59.2,73.1,44.3z"/>
				<path class="st3" d="M46,16.9c4.7,0.2,9.2,1.6,13,3.8v20.6l-13,6.3V16.9z"/>
				<path class="st4" d="M45.8,85.6C45.8,85.6,45.9,85.6,45.8,85.6L45.8,85.6C45.9,85.7,45.8,85.7,45.8,85.6L45.8,85.6z"/>
				<path class="st3" d="M87.4,44.2c0,22.6-18.5,41-41.5,41.5v0c0.1,0,0.1,0,0.2,0c22.8-0.7,41-19,41-41.5C87,22.1,69.4,4,47.2,2.8
					c-0.4,0-0.8,0-1.2,0v0C69,3.2,87.4,21.6,87.4,44.2z"/>
			</g>
		</g>
		<rect x="30.7" y="60.5" class="st2" width="12.9" height="16.2"/>
		<rect x="46.1" y="15.6" class="st3" width="13" height="19.2"/>
		<rect x="46.1" y="2.8" class="st3" width="1.2" height="16.5"/>
	</g>
	<g id="Layer_3" class="st1">
	</g>
</g>
<g id="Layer_2">
	<g id="XMLID_1_">
		<g>
			<path class="st4" d="M59.2,20.8L59.2,20.8l0,20.9L46,48V16.9C50.8,17.1,55.3,18.5,59.2,20.8z"/>
			<path class="st4" d="M87.4,44.3C87.4,66.8,69,85.2,46,85.9v-0.1v-14C60.9,71.1,72.7,59,72.7,44.3c0-10-5.4-18.7-13.6-23.5
				c-3.9-2.3-8.3-3.7-13.1-3.9V2.7C69,3.4,87.4,21.7,87.4,44.3z"/>
			<path class="st4" d="M43.7,40.8v30.9c-4.8-0.2-9.3-1.5-13.2-3.7V47.2L43.7,40.8z"/>
			<path class="st4" d="M30.6,68c3.9,2.2,8.4,3.6,13.2,3.7v14.1c-23-0.6-41.5-19-41.5-41.6s18.5-41,41.5-41.6v14.2
				c-15,0.5-27,12.6-27,27.4C16.7,54.4,22.3,63.2,30.6,68z"/>
		</g>
		<g>
		</g>
	</g>
</g>
</svg>
